<?xml version="1.0" encoding="utf-8"?>
<!-- Generator: Adobe Illustrator 19.2.1, SVG Export Plug-In . SVG Version: 6.00 Build 0)  -->
<svg version="1.1" id="layer" xmlns="http://www.w3.org/2000/svg" xmlns:xlink="http://www.w3.org/1999/xlink" x="0px" y="0px"
	 viewBox="0 0 652 652" style="enable-background:new 0 0 652 652;" xml:space="preserve">
<style type="text/css">
	.st0{fill:#FF1744;}
</style>
<g>
	<path d="M-111.8,72v39.7h37.3v96.7h51.9v-96.7h37.3V72H-111.8z M56.5,72L3.8,208.4h52.6L85,125.8l28.8,82.5h52.5L113.8,72H56.5z
		 M155.5,72v39.7h37.2v96.7h51.9v-96.7h37.3V72H155.5L155.5,72z M323.7,72l-52.8,136.4h52.7l28.7-82.5l28.7,82.5h52.6L381,72H323.7z
		 M-111.8,413.1c0-92.2,49.8-136.5,136.8-136.5c52.8,0,87.4,18.7,105.3,42c3.5,4.6,4.8,8.5,4.8,12.8c0,11.3-10.5,20.6-23.6,20.6
		c-6.1,0-12.2-2.3-17.9-7.8C75.7,326.7,56.9,317,25,317c-58.1,0-84.4,31.9-84.4,96.1c0,68.1,26.2,95.7,84.4,95.7
		c32.3,0,49.8-6.6,70.8-25.7c7-6.2,12.7-8.5,18.8-8.5c13.1,0,23.6,9.3,23.6,21c0,4.3-1.6,8.4-4.4,11.7c-21,24.9-62,42-108.8,42
		C-62,549.3-111.8,508.4-111.8,413.1 M298.2,506c11.7-0.4,21.4,8.8,21.8,20.5c0,0.4,0,0.7,0,1.1c0,12.5-9,21.7-21.8,21.7H183.1
		c-12.9,0-22.2-9.6-22.2-22.4V299.8c0-12.8,10.1-23.2,22.6-23.2c12.5,0,22.5,10.4,22.5,23.2V506H298.2z M410.9,525.2
		c0,13.3-10.2,24.1-22.7,24.1c-12.5,0-22.7-10.8-22.7-24.1V368.8c0-13.3,10.2-24.1,22.7-24.1c12.6,0,22.7,10.8,22.7,24.1
		C410.9,368.8,410.9,525.2,410.9,525.2z M728.2,572c-6.3,0-12.2-2.5-16.6-6.9l-31.7-31.8l-9.2,5.6c-1.9,1.2-3.8,2.3-5.8,3.3
		l-0.8,0.4c-14,7.2-29.1,12.2-44.7,14.7c-7,1.1-14.2,1.7-21.3,1.7c-11.9,0-23.7-1.5-35.2-4.3c-17.7-4.7-34.3-12.6-49.1-23.4
		c-14.8-10.7-27.3-24.3-36.8-39.9c-2.5-4-4.8-8.1-6.9-12.4c-5.6-11.8-9.6-24.4-11.7-37.3l-0.2-1.3l-0.3-1.5l-0.3-2.3
		c-0.8-6.2-1.3-12.4-1.3-18.7c0-11.7,1.5-23.3,4.4-34.6c4.7-17.7,12.8-34.3,23.8-49c11-14.7,24.7-27.2,40.5-36.7
		c6.1-3.8,12.6-7.2,19.4-10c10.7-4.4,21.9-7.6,33.4-9.4c19-2.9,38.4-1.8,57,3.2l0.4,0.1c1.5,0.4,2.9,0.8,4.2,1.2l0.5,0.1
		c29.5,9.4,55.1,28.1,72.9,53.3c2.2,3.1,4,5.9,5.5,8.6c7.3,12,12.7,24.9,16.1,38.3c1.4,5.4,2.5,11.1,3.2,17.2
		c2,17.4,0.9,35-3.1,52.1c-3.4,13.6-8.8,26.6-16,38.6L713,500l31.8,31.9c9.3,9.3,9.3,24,0,33.3C740.4,569.5,734.4,572,728.2,572
		 M599.3,315.2c-5.2,0-10.3,0.4-15.5,1.2c-13.8,2.1-27,6.9-38.9,14l-0.3,0.2c-11.8,7.6-21.3,16.4-29.1,26.9
		c-8.1,10.6-14,22.8-17.2,35.7c-3.6,12.9-4.4,26.5-2.2,39.7c2.1,14,6.7,26.3,13.9,37.8c6.8,11.2,16.1,21.2,26.8,28.9
		c29,21.7,67.3,26.5,100.8,12.6c17.2-7.2,32-19,42.9-34.2c7.7-10.2,13.3-22.2,16.6-35.5c3.2-13.5,3.9-27,2-40.2
		c-4.4-27.3-18.5-51.1-39.8-67.1C642,322.2,621,315.2,599.3,315.2"/>
	<path class="st0" d="M425.4,296.6c11,11,11,28.9,0,39.9s-28.9,11-39.9,0L351,301.9c-10.7-11.3-10.2-29.1,1.1-39.8
		c10.9-10.3,27.9-10.3,38.8,0L425.4,296.6L425.4,296.6z"/>
</g>
</svg>
